<svg xmlns="http://www.w3.org/2000/svg" viewBox="0 0 512 512" role="img" aria-labelledby="title desc">
  <title id="title">Care Nova AI</title>
  <desc id="desc">Installable healthcare advisor app icon.</desc>
  <defs>
    <linearGradient id="bg" x1="72" y1="54" x2="448" y2="462" gradientUnits="userSpaceOnUse">
      <stop offset="0" stop-color="#eefcff"/>
      <stop offset="0.48" stop-color="#f7fbfd"/>
      <stop offset="1" stop-color="#e9fff6"/>
    </linearGradient>
    <linearGradient id="ring" x1="98" y1="96" x2="414" y2="420" gradientUnits="userSpaceOnUse">
      <stop offset="0" stop-color="#1d4ed8"/>
      <stop offset="0.54" stop-color="#00877a"/>
      <stop offset="1" stop-color="#0f766e"/>
    </linearGradient>
    <linearGradient id="shield" x1="260" y1="156" x2="398" y2="366" gradientUnits="userSpaceOnUse">
      <stop offset="0" stop-color="#10b981"/>
      <stop offset="1" stop-color="#0f766e"/>
    </linearGradient>
    <filter id="softShadow" x="-20%" y="-20%" width="140%" height="140%" color-interpolation-filters="sRGB">
      <feDropShadow dx="0" dy="18" stdDeviation="22" flood-color="#0f766e" flood-opacity="0.2"/>
    </filter>
  </defs>
  <rect width="512" height="512" rx="112" fill="url(#bg)"/>
  <path d="M88 281h72l34-102 62 214 42-125h126" fill="none" stroke="#7dd3fc" stroke-width="12" stroke-linecap="round" stroke-linejoin="round" opacity="0.42"/>
  <circle cx="240" cy="246" r="148" fill="#ffffff" opacity="0.82" filter="url(#softShadow)"/>
  <path d="M346 134a156 156 0 1 0 31 224" fill="none" stroke="url(#ring)" stroke-width="27" stroke-linecap="round"/>
  <path d="M379 134v82H297" fill="none" stroke="#1d4ed8" stroke-width="27" stroke-linecap="round" stroke-linejoin="round"/>
  <path d="M231 151v164M149 233h164" fill="none" stroke="#1d4ed8" stroke-width="28" stroke-linecap="round"/>
  <path d="M337 206 417 238v58c0 58-38 91-80 111-42-20-80-53-80-111v-58l80-32Z" fill="url(#shield)" stroke="#ffffff" stroke-width="14" stroke-linejoin="round"/>
  <path d="m301 300 28 28 58-70" fill="none" stroke="#ffffff" stroke-width="21" stroke-linecap="round" stroke-linejoin="round"/>
</svg>
